<?xml version="1.0" standalone="no"?>
<!DOCTYPE svg PUBLIC "-//W3C//DTD SVG 1.1//EN" "http://www.w3.org/Graphics/SVG/1.1/DTD/svg11.dtd" >
<!--
2013-9-30: Created.
-->
<svg>
<metadata>
Created by iconfont
</metadata>
<defs>

<font id="iconfont" horiz-adv-x="1024" >
  <font-face
    font-family="iconfont"
    font-weight="500"
    font-stretch="normal"
    units-per-em="1024"
    ascent="896"
    descent="-128"
  />
    <missing-glyph />
    
    <glyph glyph-name="lajitong" unicode="&#58904;" d="M966.54222222 733.86666667L700.13724445 733.86666667l0 69.56373333c0 38.58773333-33.69415111 69.90506667-75.264 69.90506667L399.03345778 873.33546667c-41.61649778 0-75.31064889-31.31733333-75.31064889-69.90506667l0-69.56373333L55.18222222 733.86666667c-19.47989333 0-35.27111111-15.79121778-35.27111111-35.27111112s15.79121778-35.27111111 35.27111111-35.2711111l80.35555556 0 0-698.75484445c0-38.63438222 33.7408-69.90506667 75.264-69.90506667l602.25536 0c41.61649778 0 75.31064889 31.27068445 75.31064889 69.90506667L888.36778667 663.32444445 966.54222222 663.32444445c19.47989333 0 35.27111111 15.79121778 35.27111111 35.2711111S986.02211555 733.86666667 966.54222222 733.86666667zM399.03345778 803.4304l225.83978667 0 0-69.56373333L399.03345778 733.86666667 399.03345778 803.4304zM813.05827555-35.43039999999996L210.80177778-35.43039999999996 210.80177778 663.32444445l602.25536 0L813.05713778-35.43039999999996zM359.64814222 81.26122667000004c19.47989333 0 35.27111111 15.79121778 35.27111111 35.27111111L394.91925333 524.40519111c0 19.47989333-15.79121778 35.27111111-35.27111111 35.27111111s-35.27111111-15.79121778-35.27111111-35.27111111l0-407.87285333C324.37703111 97.05244445000005 340.16824889 81.26122667000004 359.64814222 81.26122667000004zM510.86222222 81.26122667000004c19.47989333 0 35.27111111 15.79121778 35.27111111 35.27111111L546.13333333 524.40519111c0 19.47989333-15.79121778 35.27111111-35.27111111 35.27111111s-35.27111111-15.79121778-35.27111111-35.27111111l0-407.87285333C475.59111111 97.05244445000005 491.38232889 81.26122667000004 510.86222222 81.26122667000004zM661.71335111 81.26122667000004c19.47989333 0 35.27111111 15.79121778 35.27111111 35.27111111L696.98446222 524.40519111c0 19.47989333-15.79121778 35.27111111-35.27111111 35.27111111s-35.27111111-15.79121778-35.27111111-35.27111111l0-407.87285333C626.44224 97.05244445000005 642.23345778 81.26122667000004 661.71335111 81.26122667000004z"  horiz-adv-x="1024" />

    
    <glyph glyph-name="sousuo" unicode="&#58916;" d="M985.653133-199.368308c-13.911848-13.911848-36.464493-13.911848-50.369178 0L690.230774 49.850753c-72.680323-57.158814-163.16208-92.6614-262.804475-92.6614-236.049111 0-427.405323 191.356212-427.405323 427.405323S191.378212 812 427.427322 812s427.405323-191.356212 427.405323-427.405323c0-110.669542-43.168172-210.547297-112.179942-286.454104L985.653133-148.999131C999.558841-162.903815 999.558841-185.456461 985.653133-199.368308zM427.427322 740.765609c-196.706057 0-356.170932-159.464875-356.170932-356.170932s159.464875-356.170932 356.170932-356.170932 356.170932 159.464875 356.170932 356.170932S624.13338 740.765609 427.427322 740.765609z"  horiz-adv-x="1024" />

    
    <glyph glyph-name="tingchechang" unicode="&#59105;" d="M545.4738464 618.3147434699999L378.1057056 618.3147434699999l0-468.62839467 66.9466016 0L445.0523072 283.57955200000004l100.420448 0c92.43374827 0 167.3670496 74.9333024 167.3670496 167.3670496S637.90759467 618.3147434699999 545.4738464 618.3147434699999zM545.4738464 350.52615360000004l-100.420448 0 0 200.84089707 100.420448 0c55.459376 0 100.420448-44.96107307 100.420448-100.420448C645.8942944 395.48831787 600.9321312 350.52615360000004 545.4738464 350.52615360000004zM512 886.10224107c-277.30124373 0-502.10224107-224.794448-502.10224107-502.10224107 0-277.30124373 224.80099733-502.10224107 502.10224107-502.10224107s502.10224107 224.80099733 502.10224107 502.10224107C1014.10224107 661.30779307 789.30124373 886.10224107 512 886.10224107zM512-51.15563946999998c-240.3334208 0-435.15563947 194.82221867-435.15563947 435.15563947 0 240.32578027 194.82221867 435.15563947 435.15563947 435.15563947 240.32578027 0 435.15563947-194.828768 435.15563947-435.15563947C947.15563947 143.6665792 752.32578027-51.15563946999998 512-51.15563946999998z"  horiz-adv-x="1024" />

    
    <glyph glyph-name="jia" unicode="&#58900;" d="M767.788687 445.984726l-218.138182 0 0 228.371244c0 25.880437-20.9788 46.862307-46.860261 46.862307-25.880437 0-46.860261-20.98187-46.860261-46.862307l0-228.371244-218.138182 0c-25.880437 0-46.860261-20.976754-46.860261-46.860261 0-25.87839 20.9788-46.857191 46.860261-46.857191l218.138182 0 0-218.141252c0-25.87839 20.979824-46.862307 46.860261-46.862307 25.880437 0 46.860261 20.983917 46.860261 46.862307L549.650505 352.267275l218.138182 0c25.880437 0 46.860261 20.9788 46.860261 46.857191C814.648948 425.007973 793.670148 445.984726 767.788687 445.984726z"  horiz-adv-x="1024" />

    
    <glyph glyph-name="jiudian" unicode="&#58970;" d="M957.335694 84.910111l-54.235229 0L903.100466 507.135458c0 30.79947-16.303314 62.821791-47.102784 62.821791L725.33376 569.957249c-20.618597 0-46.337351-23.537066-46.337351-44.154639l0-440.892499-36.839023 0L642.157385 731.130022c0 30.79947-16.687054 62.930261-47.487547 62.930261L184.012967 794.060283c-30.79947 0-64.765049-32.130791-64.765049-62.930261l0-646.220934-54.235229 0c-1.130753 0-2.046612-0.915859-2.046612-2.046612l0-144.286174c0-1.130753 0.915859-2.046612 2.046612-2.046612l892.323005 0c1.130753 0 2.046612 0.915859 2.046612 2.046612l0 144.286174C959.382307 83.993229 958.466448 84.910111 957.335694 84.910111zM341.305363 309.507402c0-20.618597-16.714683-37.332257-37.332257-37.332257L230.258221 272.175145c-20.618597 0-37.332257 16.714683-37.332257 37.332257l0 73.714885c0 20.618597 16.714683 37.332257 37.332257 37.332257l73.714885 0c20.618597 0 37.332257-16.714683 37.332257-37.332257L341.305363 309.507402zM341.305363 534.634766c0-20.618597-16.714683-37.332257-37.332257-37.332257L230.258221 497.302509c-20.618597 0-37.332257 16.714683-37.332257 37.332257l0 73.714885c0 20.618597 16.714683 37.332257 37.332257 37.332257l73.714885 0c20.618597 0 37.332257-16.714683 37.332257-37.332257L341.305363 534.634766zM565.40942 309.507402c0-20.618597-16.714683-37.332257-37.332257-37.332257L454.362278 272.175145c-20.618597 0-37.332257 16.714683-37.332257 37.332257l0 73.714885c0 20.618597 16.714683 37.332257 37.332257 37.332257l73.714885 0c20.618597 0 37.332257-16.714683 37.332257-37.332257L565.40942 309.507402zM565.40942 534.634766c0-20.618597-16.714683-37.332257-37.332257-37.332257L454.362278 497.302509c-20.618597 0-37.332257 16.714683-37.332257 37.332257l0 73.714885c0 20.618597 16.714683 37.332257 37.332257 37.332257l73.714885 0c20.618597 0 37.332257-16.714683 37.332257-37.332257L565.40942 534.634766zM846.818625 197.967026c0-20.618597-16.714683-37.332257-37.332257-37.332257L772.610506 160.63477c-20.618597 0-37.332257 16.714683-37.332257 37.332257l0 36.875862c0 20.618597 16.714683 37.332257 37.332257 37.332257l36.875862 0c20.618597 0 37.332257-16.714683 37.332257-37.332257L846.818625 197.967026zM846.818625 384.208754c0-20.618597-16.714683-37.332257-37.332257-37.332257L772.610506 346.876498c-20.618597 0-37.332257 16.714683-37.332257 37.332257l0 36.875862c0 20.618597 16.714683 37.332257 37.332257 37.332257l36.875862 0c20.618597 0 37.332257-16.714683 37.332257-37.332257L846.818625 384.208754z"  horiz-adv-x="1024" />

    
    <glyph glyph-name="yonghuming" unicode="&#58887;" d="M934.1301632-60.605343999999945c-13.60465173 93.4033472-58.97015147 179.33654293-129.8426336 244.803632-39.96118187 36.8635488-86.11548053 65.4073952-136.03576747 84.65940053 28.118544 14.6972352 54.23309653 33.76591573 77.31078294 56.84252694 59.51378347 59.51644373 92.3086144 138.6180128 92.3086144 222.7599104s-32.794832 163.24399573-92.3086144 222.72898986c-59.45622187 59.48606827-138.58871253 92.2798432-222.7002176 92.2798432-84.17119893 0-163.24186347-32.79377387-222.75936534-92.2798432-59.51538667-59.4850112-92.2489216-138.58710933-92.2489216-222.72898986s32.733536-163.2434496 92.2489216-222.7599104c20.70915947-20.64840853 43.72715307-38.13841707 68.56525014-52.105472-54.83962773-19.13050453-105.60999253-49.37559893-148.97100587-89.45614827-70.87248213-65.4073952-116.238528-151.402416-129.84157547-244.80468907-2.5508128-17.55290773 10.7489792-33.52501227 28.78582507-34.61653866l2.0034464-0.12151787c16.2151392-1.03290773 30.42683307 10.4451936 32.733536 26.23501227 11.6001312 79.19324053 50.1643968 152.06969707 110.28735467 207.57766186 63.52439253 58.66529173 145.50987733 92.49195733 232.29371306 96.19717867 8.9278176-0.73018027 17.85509013-1.1544256 26.9028224-1.1544256 5.64844587 0 11.2968736 0.1822848 16.94424534 0.42424533 82.41239147-6.0726912 159.84256-39.47403627 220.57259413-95.46701546 60.12457707-55.50796587 98.6264736-128.3844224 110.28789973-207.57766187 2.30670293-15.7898368 16.4571168-27.206096 32.67225707-26.23501227l2.0647424 0.12151787C923.38012693-94.06851413000004 936.74066773-78.15717653000002 934.1301632-60.605343999999945zM271.9247424 548.46010987c0 67.0164256 26.11349547 130.02384427 73.4840448 177.3943936 47.4307712 47.39933867 110.4078144 73.48351573 177.45355733 73.48351573 66.98605013 0 130.0249184-26.08417707 177.3943936-73.48351573 47.36949227-47.37054933 73.4840448-110.377968 73.4840448-177.3943936s-26.1145696-130.02437227-73.4840448-177.39386454c-46.76296107-46.82318293-108.7689216-72.81623467-174.84252373-73.4227488-4.4343264 0.12045973-8.8665216 0.1822848-13.36054187 0.1822848-62.9770432 2.6105056-121.76438187 28.36050453-166.64488533 73.24048107C298.0382368 418.4357376 271.9247424 481.44368427 271.9247424 548.46010987z"  horiz-adv-x="1024" />

    
    <glyph glyph-name="touxiang2" unicode="&#58885;" d="M512 863.5840000000001c-264.866 0-479.584-214.718-479.584-479.584s214.718-479.584 479.584-479.584 479.584 214.718 479.584 479.584-214.718 479.584-479.584 479.584zM512 597.149c66.101 0 119.69-53.586 119.69-119.689 0-66.102-53.586-119.69-119.69-119.69s-119.689 53.586-119.689 119.69c0 66.101 53.586 119.689 119.689 119.689zM717.92 173.03099999999995h-411.84c-6.546 0-11.742 4.412-11.385 10.948 4.411 80.913 53.018 149.516 122.102 183.17 3.821 1.861 8.365 1.142 11.77-1.399 23.278-17.371 52.155-27.793 83.431-27.793s60.154 10.219 83.431 27.589c3.406 2.541 7.95 2.954 11.77 1.092 69.084-33.654 117.692-101.729 122.102-182.642 0.357-6.538-4.838-10.965-11.385-10.965z"  horiz-adv-x="1024" />

    
    <glyph glyph-name="more" unicode="&#59112;" d="M880.707 382.443l-348.871-349.087c-15.643-15.643-40.998-15.641-56.629 0-15.64 15.632-15.643 40.989 0 56.631l292.558 292.562-293.99 293.994c-15.636 15.631-15.636 40.99 0 56.629 15.641 15.63600001 40.994 15.636 56.629 0l32.755-32.755-0.221-0.20299999 317.771-317.77200001zM560.351 382.443l-348.875-349.087c-15.643-15.643-40.999-15.643-56.629 0-15.64 15.632-15.643 40.989 0 56.631l292.558 292.562-293.991 293.994c-15.636 15.631-15.636 40.99 0 56.629 15.641 15.63600001 40.999 15.636 56.629 0l32.763-32.755-0.225-0.204 317.774-317.772zM560.351 382.443z"  horiz-adv-x="1024" />

    
    <glyph glyph-name="code" unicode="&#58880;" d="M868.965 648.87c-109.174 24.183-195.264 68.584-248.26 101.572-57.709 35.923-89.866 66.524-90.158 66.805-10.352 9.976-26.742 9.976-37.094 0-1.258-1.213-128.307-121.837-338.419-168.377-12.238-2.71-20.948-13.562-20.948-26.096v-347.008c0-3.023 0.514-6.024 1.518-8.875 0.896-2.547 22.605-63.187 78.943-133.2 32.983-40.988 71.176-76.904 113.515-106.75 52.924-37.306 112.443-65.14 176.903-82.725 2.109-0.598 4.532-0.942 7.035-0.942 2.503 0 4.926 0.344 7.223 0.987 64.272 17.541 123.792 45.374 176.716 82.68 42.339 29.845 80.531 65.762 113.514 106.75 56.339 70.013 78.048 130.653 78.944 133.2 0.962 2.645 1.518 5.697 1.518 8.88v347.002c-0.001 12.535-8.711 23.386-20.949 26.096zM836.456 280.735c-5.558-13.781-26.62-61.743-69.983-115.181-66.541-82.005-152.13-138.434-254.471-167.799-102.34 29.366-187.93 85.794-254.471 167.798-43.391 53.475-64.454 101.463-69.983 115.178v320.878c107.361 26.771 192.114 70.996 245.494 104.38 36.079 22.564 62.719 43.057 78.961 56.51 16.242-13.452 42.882-33.945 78.961-56.51 53.38-33.384 138.132-77.608 245.494-104.38v-320.873zM369.088 378.555c-12.165 8.361-28.806 5.278-37.169-6.888-8.36-12.165-5.277-28.807 6.889-37.168l109.943-75.568c4.226-2.944 9.467-4.703 15.119-4.703 0.005 0 0.009 0 0.014 0 6.892 0 13.736 2.658 18.905 7.825l206.158 206.080c10.441 10.436 10.443 27.36 0.008 37.801-10.436 10.44-27.359 10.443-37.8 0.007l-190.439-190.367-91.627 62.978z"  horiz-adv-x="1024" />

    
    <glyph glyph-name="tuichu" unicode="&#58938;" d="M888 162.4c-11.2 0-20-8.8-20-20v-223.2H177.6V849.6h690.4V616c0-11.2 8.8-20 20-20s20 8.8 20 20V869.6c0 11.2-8.8 20-20 20H157.6c-11.2 0-20-8.8-20-20v-970.4c0-11.2 8.8-20 20-20H888c11.2 0 20 8.8 20 20V142.4c0 11.2-8.8 20-20 20zM950.4 366.4c0 0.8 0 0.8 0 0 0.8 1.6 1.6 2.4 1.6 3.2v0.8c0 0.8 0.8 1.6 0.8 2.4v4 4c0 0.8-0.8 1.6-0.8 2.4V384c0 0.8-0.8 1.6-1.6 2.4v0.8c-0.8 0.8-1.6 2.4-2.4 3.2L706.4 633.6c-8 8-20.8 8-28 0-8-8-8-20.8 0-28l207.2-207.2H458.4c-11.2 0-20-8.8-20-20s8.8-20 20-20h427.2l-208-208c-8-8-8-20.8 0-28 4-4 8.8-5.6 14.4-5.6s10.4 1.6 14.4 5.6l241.6 241.6 2.4 2.4z"  horiz-adv-x="1024" />

    
    <glyph glyph-name="dingwei" unicode="&#58901;" d="M512 92.59c12.329 0 268.928 385.992 268.928 534.482C780.928 775.562 660.49 896 512 896S243.072 775.562 243.072 627.072 499.671 92.59 512 92.59zM384.87 627.072c0 70.195 56.935 127.13 127.13 127.13 70.2 0 127.13-56.935 127.13-127.13 0-70.2-56.935-127.13-127.13-127.13s-127.13 56.93-127.13 127.13zM706.391 159.34c58.48-19.672 95.222-48.088 95.222-79.688 0-59.387-129.7-107.546-289.613-107.546S222.387 20.26 222.387 79.652c0 31.6 36.741 60.011 95.222 79.688-119.112-26.43-199.475-76.386-199.475-133.658C118.134-59.177 294.528-128 512-128c217.472 0 393.866 68.823 393.866 153.687 0 57.267-80.363 107.223-199.475 133.653z"  horiz-adv-x="1024" />

    
    <glyph glyph-name="iconfont_-" unicode="&#59044;" d="M1004.24817778 596.14245925C732.27377778 868.23822222 290.99804445 868.23822222 19.02364445 596.14245925c-15.29173333-15.29173333-15.29173333-40.17114075 0-55.46287407 15.29173333-15.29173333 40.17114075-15.29173333 55.46287407 0 241.5122963 241.5122963 633.02921482 241.5122963 874.54151111 0 15.4130963-15.29173333 40.17114075-15.29173333 55.46287407 0 15.04900741 15.29173333 15.04900741 40.17114075-0.24272592 55.46287407z m0 0M166.72237037 427.69066667c-15.4130963-15.29173333-15.4130963-40.17114075 0-55.46287408 15.29173333-15.29173333 40.17114075-15.29173333 55.46287408 0 159.83502222 159.83502222 419.06631111 159.83502222 578.77997037 0 15.29173333-15.29173333 40.17114075-15.29173333 55.46287407 0 15.4130963 15.29173333 15.4130963 40.17114075 0 55.46287408-190.53985185 190.41848889-499.16586667 190.41848889-689.70571852 0z m0 0M709.21481482 248.92302222l0.24272593 0.24272593c-108.86257778 108.86257778-285.32432592 108.86257778-394.06554075 0-15.29173333-15.4130963-15.29173333-40.17114075 0-55.46287407 15.29173333-15.29173333 40.17114075-15.29173333 55.46287408 0 78.27911111 78.27911111 205.10340741 78.27911111 283.26115555 0l0.24272592 0.24272592c0.84954075-1.09226667 1.82044445-2.18453333 2.91271112-3.2768 15.29173333-15.29173333 40.17114075-15.29173333 55.46287408 0 15.29173333 15.29173333 15.29173333 40.17114075 0 55.46287408-1.33499259 0.9709037-2.42725925 1.82044445-3.51952593 2.79134814z m0 0M453.86714075 27.314251850000005c0-32.40391111 26.33576297-58.73967408 58.73967407-58.73967407s58.73967408 26.33576297 58.73967407 58.73967407c0 32.52527408-26.33576297 58.73967408-58.73967407 58.73967407-32.40391111 0.12136297-58.73967408-26.2144-58.73967407-58.73967407z m0 0"  horiz-adv-x="1024" />

    
    <glyph glyph-name="arrow-down" unicode="&#58883;" d="M512.0064 221.08901200000003l-429.036479 429.087677a48.535392 48.535392 0 0 1-68.604879-0.255988 48.381799 48.381799 0 0 1-0.20479-68.553681L468.897961 126.62931000000003a48.842578 48.842578 0 0 1 45.05395-24.114102 48.637787 48.637787 0 0 1 41.31652001 24.1653l454.63531399 454.686512a48.535392 48.535392 0 0 1-0.20479 68.604878 48.381799 48.381799 0 0 1-68.604879 0.204791l-429.03647901-429.087677z"  horiz-adv-x="1024" />

    
    <glyph glyph-name="gouwuchekong" unicode="&#58884;" d="M349.5017075 180.87713437000002a89.85654375 89.85654375 0 0 0 34.53498656-6.71025656 85.69922906 85.69922906 0 0 0 28.30486969-18.73719093 92.04645281 92.04645281 0 0 0 19.1821997-28.29315938 86.47213781 86.47213781 0 0 0 0-69.09339281 90.72313875 90.72313875 0 0 0-47.45193751-47.42851594 84.64526156 84.64526156 0 0 0-34.57011844-7.21381875 87.01083281 87.01083281 0 0 0-35.46013406 7.21381875 90.76998187 90.76998187 0 0 0-47.48706938 47.48706938 86.53069219 86.53069219 0 0 0 0 69.09339374 92.18698125 92.18698125 0 0 0 19.19391 28.29315844 85.64067563 85.64067563 0 0 0 28.29315938 18.73719188 92.39777531 92.39777531 0 0 0 35.46013406 6.65170218z m399.07875469-1.92056156a93.41661001 93.41661001 0 0 0 35.01512719-6.72196781 84.43446844 84.43446844 0 0 0 28.77329906-18.73719094 92.2806675 92.2806675 0 0 0 19.19391-28.30486968 86.53069219 86.53069219 0 0 0 0-69.09339375 92.25724594 92.25724594 0 0 0-19.19391-28.30486969 90.68800594 90.68800594 0 0 0-28.77329906-19.18219969 87.98282438 87.98282438 0 0 0-35.01512719-7.19039719 84.57499781 84.57499781 0 0 0-34.53498562 7.19039719 90.67629563 90.67629563 0 0 0-47.48706938 47.48706938 86.48384906 86.48384906 0 0 0 0 69.09339375 92.17527094 92.17527094 0 0 0 19.22904282 28.29315843 85.61725406 85.61725406 0 0 0 28.30486968 18.73719188 89.7628575 89.7628575 0 0 0 34.53498562 6.72196687z m161.22182156 544.9126575q26.86444781 0 41.73709406-7.19039719t21.07933969-17.75348906a40.29667219 40.29667219 0 0 0 5.74997531-22.54318312 75.20640187 75.20640187 0 0 0-3.36098343-20.62262157q-2.8691325-8.63081906-12.47194313-35.49526687t-20.59919906-59.01044249q-11.03152125-32.14599375-22.06304344-63.80013657t-17.74177781-49.88777157q-12.47194313-38.37610969-31.17400219-53.24875593t-46.53849937-14.81409188H320.76354031l13.43222438-86.34331969h484.46179406q46.0466475 0 46.0466475-39.33639187 0-19.18219969-9.12267-33.57470438t-35.9754075-13.43222437H316.92241625q-19.18219969 0-32.13428344 8.63081906a72.86425312 72.86425312 0 0 0-21.58290187 22.54318313 137.01571219 137.01571219 0 0 0-13.912365 30.22543218 276.78344906 276.78344906 0 0 0-8.19752063 30.69386157q-0.96028125 5.76168656-5.28154594 27.82472906t-10.44598406 55.11076406q-6.24182719 33.106275-13.912365 73.8713775t-15.35278593 81.97521188q-18.22191844 96.89470125-41.24524313 215.852445H82.84805281q-14.39250469 0-23.983605 7.19039718A62.5587975 62.5587975 0 0 0 43.03152125 778.00800187 66.47018625 66.47018625 0 0 0 34.40070219 799.59090469a104.34273469 104.34273469 0 0 0-2.34214875 21.07934062q0 19.18219969 12.95208375 31.61901T80.02576343 863.80091719h96.89470126q19.18219969 0 30.69386156-5.74997532a52.10110313 52.10110313 0 0 0 18.22191844-14.39250562 56.90250844 56.90250844 0 0 0 9.59110031-17.75348813q2.88084281-9.11095969 4.78969406-15.8329275a216.34429594 216.34429594 0 0 0 3.84112407-21.58290187q1.9205625-13.912365 3.84112406-28.29315938 2.88084281-17.27334844 5.74997624-36.45554718h656.15302032z m-35.49526686-85.38303937l-600.55040533 1.9205625 33.58641563-173.64692157 501.7351425-0.96028125z m0 0"  horiz-adv-x="1395" />

    
    <glyph glyph-name="first" unicode="&#58888;" d="M62.573 394.76966666l423.401 423.662c18.985 18.985 49.757 18.985 68.727 0 18.985-18.972 18.985-49.746 0-68.729l-355.05800001-355.067 356.796-356.796c18.976-18.97100001 18.976-49.74699999 0-68.727-18.982-18.976-49.751-18.976-68.727 0l-39.75299999 39.75300001 0.269 0.246-385.655 385.66099999zM451.365 394.76966666l423.407 423.66199999c18.985 18.985 49.757 18.985 68.727 0 18.985-18.972 18.985-49.746 0-68.72899998l-355.058-355.067 356.79600001-356.79600001c18.976-18.97100001 18.976-49.74699999 0-68.727-18.982-18.976-49.757-18.976-68.72600001 0l-39.76200001 39.753 0.27300001 0.24599998-385.66200001 385.66100002zM451.365 394.76966666z"  horiz-adv-x="1024" />

    
    <glyph glyph-name="shangyiye" unicode="&#58898;" d="M795.01842963-24.14364445000001L345.97546667 384l449.04296296 408.14364445c21.9666963 19.90352592 22.9376 53.15697778 2.18453334 74.15277037-20.75306667 21.11715555-55.22014815 22.08805925-77.06548149 2.18453333L229.10293333 422.22933333c-10.92266667-9.95176297-17.11217778-23.66577778-17.11217778-38.22933333 0-14.44219259 6.18951111-28.27757037 17.11217778-38.22933333l491.03454815-446.25161482c21.84533333-19.90352592 56.43377778-18.93262222 77.06548149 2.06317037 20.6317037 21.11715555 19.6608 54.37060741-2.18453334 74.27413333z"  horiz-adv-x="1024" />

    
    <glyph glyph-name="shangpin" unicode="&#58882;" d="M884.686 864.107H676.032c-17.315 0-31.353-14.036-31.353-31.353S658.715 801.4 676.032 801.4h194.972c30.686 0 55.562-24.876 55.562-55.562v-718.596c0-30.687-24.876-55.562-55.562-55.562H152.412c-30.686 0-55.562 24.876-55.562 55.562V745.839c0 30.686 24.876 55.562 55.562 55.562h168.225c17.316 0 31.354 14.038 31.354 31.354s-14.038 31.353-31.354 31.353H138.73c-57.761 0-104.587-46.826-104.587-104.587v-745.962c0-57.761 46.826-104.587 104.587-104.587h745.959c57.761 0 104.587 46.825 104.587 104.587V759.52c0 57.761-46.826 104.587-104.588 104.587zM830.993 624.88c0 29.163-23.641 52.803-52.803 52.803s-52.803-23.641-52.803-52.803c0-17.127 8.16-32.341 20.798-41.989-23.728-107.101-119.425-187.439-233.57-187.439-114.156 0-209.862 80.365-233.568 187.487 12.603 9.65 20.738 24.842 20.738 41.942 0 29.163-23.641 52.801-52.801 52.801s-52.801-23.641-52.801-52.801c0-19.181 10.227-35.969 25.525-45.216 1.219-1.094 2.694-2.077 4.491-2.923 23.028-138.407 143.585-244.281 288.42-244.281 144.841 0 265.401 105.874 288.423 244.281 1.927 0.906 3.461 1.945 4.7 3.089 15.143 9.281 25.252 25.983 25.252 45.051z"  horiz-adv-x="1024" />

    
    <glyph glyph-name="xingxing1" unicode="&#58890;" d="M987.208776 495.569588a44.477338 44.477338 0 0 1-35.944676 30.314463l-276.256673 40.163977-123.622812 250.363068a44.531087 44.531087 0 0 1-79.871086 0L348.02509 566.0480279999999 71.701231 525.910926A44.51765 44.51765 0 0 1 47.030418 449.882896l199.933023-194.840301-47.191664-275.127943a44.531087 44.531087 0 0 1 64.63323-46.949794L511.529696 62.889745999999946l247.097814-129.924888a44.504212 44.504212 0 0 1 64.592919 46.949794L776.028764 255.042595l199.933024 194.840301a44.61171 44.61171 0 0 1 11.246988 45.686692z m0 0"  horiz-adv-x="1024" />

    
    <glyph glyph-name="quan" unicode="&#59131;" d="M1183.428923 540.593231c-83.259077 0-150.764308-68.174769-150.764308-152.300308s67.505231-152.339692 150.764308-152.339692h50.254769v-253.833846c0-56.083692-44.977231-101.572923-100.509538-101.572923H127.291077c-55.532308 0.393846-100.233846 46.08-99.879385 102.203076v253.833847h50.25477c83.259077 0 150.764308 68.214154 150.764307 152.339692S160.925538 541.223385 77.666462 541.223385H27.411692V795.096615C27.726769 850.904615 72.664615 896 127.921231 896h1005.252923c55.532308 0 100.509538-45.449846 100.509538-101.533538v-253.873231h-50.254769z m-380.731077-161.201231c22.212923 0 40.172308 18.195692 40.172308 40.605538 0 22.449231-17.959385 40.644923-40.172308 40.644924h-115.003077l114.372923 118.035692c10.200615 10.043077 14.257231 24.812308 10.673231 38.715077a40.96 40.96 0 0 1-28.278154 24.733538 41.787077 41.787077 0 0 1-38.951384-10.791384l-114.333539-116.105847-115.593846 118.665847a39.936 39.936 0 0 1-56.556308-6.104616 40.96 40.96 0 0 1 0-51.003077l114.333539-116.184615H458.436923c-22.212923 0-40.172308-18.156308-40.172308-40.566154 0-22.449231 17.959385-40.644923 40.172308-40.644923h134.459077v-92.672h-134.459077a40.566154 40.566154 0 0 1-34.894769-45.331692c2.323692-18.432 16.659692-32.925538 34.894769-35.249231h134.459077v-34.894769c0-22.449231 17.998769-40.644923 40.172308-40.644923 22.252308 0 40.251077 18.195692 40.251077 40.644923v34.894769h131.938461a40.566154 40.566154 0 0 1 34.855385 45.371077 40.408615 40.408615 0 0 1-34.855385 35.209846h-131.938461v92.672h129.417846z"  horiz-adv-x="1260" />

    
    <glyph glyph-name="mima" unicode="&#58889;" d="M224 393.472a32 32 0 0 1-32-32v-384a32 32 0 0 1 32-32h576a32 32 0 0 1 32 32v384a32 32 0 0 1-32 32H224z m0 64h576a96 96 0 0 0 96-96v-384a96 96 0 0 0-96-96H224a96 96 0 0 0-96 96v384a96 96 0 0 0 96 96zM480 250.24a32 32 0 1 0 64 0v-192a32 32 0 0 0-64 0v192z m251.264 154.88V571.264a219.264 219.264 0 0 1-438.528 0V406.08h-64V571.2a283.264 283.264 0 0 0 566.528 0v-166.208l-64 0.128z"  horiz-adv-x="1024" />

    
    <glyph glyph-name="riqi" unicode="&#58944;" d="M915.93386667 520.53333333v85.12853334c0 56.59306667-46.62613333 102.6048-103.97013334 102.6048h-61.91786666v-54.34026667c0-25.94133333-21.36746667-47.03573333-47.7184-47.03573333a47.37706667 47.37706667 0 0 0-47.65013334 47.104V708.26666667H356.21546667v-54.34026667c0-25.94133333-21.2992-47.03573333-47.65013334-47.03573333a47.37706667 47.37706667 0 0 0-47.65013333 47.104V708.26666667H209.57866667c-57.344 0-103.97013333-46.01173333-103.97013334-102.6048V520.53333333h810.32533334z m0-68.26666666h-810.32533334v-372.87253334c0-56.59306667 46.6944-102.6048 103.97013334-102.6048h602.38506666c57.344 0 103.97013333 46.01173333 103.97013334 102.6048V452.26666667z m-165.888 326.58773333h61.91786666c96.73386667 0 175.44533333-77.68746667 175.44533334-173.19253333v-526.26773334c0-95.4368-78.71146667-173.19253333-175.44533334-173.19253333l-618.97386666 0.8192C103.97013333-84.71893333000003 34.13333333-10.581333330000007 34.13333333 79.39413333000005v526.336c0 95.4368 78.71146667 173.12426667 175.44533334 173.12426667h51.33653333V814.76266667c0 25.94133333 21.36746667 47.03573333 47.65013333 47.03573333 26.28266667 0 47.65013333-21.0944 47.65013334-47.03573333v-35.97653334H654.67733333V814.76266667c0 25.94133333 21.36746667 47.03573333 47.65013334 47.03573333 26.35093333 0 47.7184-21.0944 47.7184-47.03573333v-35.97653334zM533.84533333 95.50506667000002h-45.4656a47.37706667 47.37706667 0 0 0-47.65013333 47.104c0 25.94133333 21.2992 47.03573333 47.65013333 47.03573333h45.4656c26.35093333 0 47.65013333-21.16266667 47.65013334-47.104 0-25.94133333-21.2992-46.96746667-47.65013334-46.96746667zM321.19466667 243.37066667h-45.53386667a47.37706667 47.37706667 0 0 0-47.65013333 47.03573333c0 25.94133333 21.36746667 47.03573333 47.65013333 47.03573333h45.53386667c26.28266667 0 47.65013333-21.0944 47.65013333-47.104 0-25.94133333-21.36746667-46.96746667-47.65013333-46.96746666z m212.65066666 0h-45.4656a47.37706667 47.37706667 0 0 0-47.65013333 47.03573333c0 25.94133333 21.2992 47.03573333 47.65013333 47.03573333h45.4656c26.35093333 0 47.65013333-21.0944 47.65013334-47.104 0-25.94133333-21.2992-46.96746667-47.65013334-46.96746666z m212.10453334 0h-45.4656a47.37706667 47.37706667 0 0 0-47.65013334 47.03573333c0 25.94133333 21.2992 47.03573333 47.65013334 47.03573333h45.4656c26.35093333 0 47.65013333-21.0944 47.65013333-47.104 0-25.94133333-21.2992-46.96746667-47.65013333-46.96746666zM321.19466667 95.57333332999997h-45.53386667a47.37706667 47.37706667 0 0 0-47.65013333 47.03573334c0 25.94133333 21.36746667 47.03573333 47.65013333 47.03573333h45.53386667c26.28266667 0 47.65013333-21.16266667 47.65013333-47.104 0-25.94133333-21.36746667-46.96746667-47.65013333-46.96746667z m424.7552 0h-45.4656a47.37706667 47.37706667 0 0 0-47.65013334 47.03573334c0 25.94133333 21.2992 47.03573333 47.65013334 47.03573333h45.4656c26.35093333 0 47.65013333-21.16266667 47.65013333-47.104 0-25.94133333-21.2992-46.96746667-47.65013333-46.96746667z"  horiz-adv-x="1024" />

    
    <glyph glyph-name="shijian" unicode="&#59241;" d="M513 832C265.97 832 65 631.03 65 384s200.97-448 448-448 448 200.97 448 448S760.03 832 513 832z m0-832c-211.73 0-384 172.26-384 384s172.27 384 384 384 384-172.26 384-384-172.27-384-384-384zM769 416H545V640c0 17.6-14.4 32-32 32s-32-14.4-32-32v-256c0-17.6 14.4-32 32-32h256c17.6 0 32 14.4 32 32s-14.4 32-32 32z"  horiz-adv-x="1024" />

    
    <glyph glyph-name="xiayiye" unicode="&#58886;" d="M186.89005 845.142285c0 45.520048 60.600309 67.581911 96.066849 36.025068l473.259554-424.481425c43.844463-39.190061 43.844463-102.955363 0-142.797041l-473.818082-424.481425C246.745655-142.242469 186.238434-119.435901 186.238434-74.56747a50.267537 50.267537 0 0 0 16.755846 35.931981l473.259554 424.481425L202.99428 810.327361A46.730192 46.730192 0 0 0 186.89005 845.235373z"  horiz-adv-x="1024" />

    
    <glyph glyph-name="qita" unicode="&#59005;" d="M858.4 10.304h-255.296c-35.2 0-63.808 28.704-63.808 63.808v218.784c0 35.2 28.704 63.808 63.808 63.808h218.688c35.2 0 63.808-28.704 63.808-63.808v-145.92a27.328 27.328 0 0 0-54.592 0v145.92a9.12 9.12 0 0 1-9.12 9.12h-218.784a9.12 9.12 0 0 1-9.12-9.12v-218.688c0-4.992 4.128-9.12 9.12-9.12h255.2c15.104 0 27.296-12.288 27.296-27.296a27.296 27.296 0 0 0-27.2-27.52z m-437.504 0H202.24c-35.2 0-63.808 28.704-63.808 63.808v218.784c0 35.2 28.704 63.808 63.808 63.808h218.688c35.2 0 63.808-28.704 63.808-63.808v-218.688a64 64 0 0 0-63.808-63.904zM202.24 302.016a9.12 9.12 0 0 1-9.12-9.12v-218.688c0-4.992 4.096-9.12 9.12-9.12h218.688a9.12 9.12 0 0 1 9.088 9.12v218.688a9.12 9.12 0 0 1-9.088 9.12H202.24z m619.584 109.28h-218.688c-35.2 0-63.808 28.704-63.808 63.808V693.76c0 35.2 28.704 63.808 63.808 63.808h218.688c35.2 0 63.808-28.704 63.808-63.808v-218.688a63.84 63.84 0 0 0-63.808-63.808zM603.104 703.04a9.12 9.12 0 0 1-9.12-9.12v-218.688c0-4.992 4.128-9.088 9.12-9.088h218.688a9.12 9.12 0 0 1 9.12 9.088V693.792a9.12 9.12 0 0 1-9.12 9.12h-218.688v0.096z m-145.792-291.712H202.208c-35.2 0-63.808 28.704-63.808 63.808V693.76c0 35.2 28.704 63.808 63.808 63.808h218.688c35.2 0 63.808-28.704 63.808-63.808v-145.792a27.328 27.328 0 0 0-54.592 0V693.792a9.12 9.12 0 0 1-9.12 9.12H202.24a9.12 9.12 0 0 1-9.12-9.12v-218.688c0-4.992 4.096-9.088 9.12-9.088h255.2a27.328 27.328 0 1 0-0.096-54.72z"  horiz-adv-x="1024" />

    
    <glyph glyph-name="wangluo" unicode="&#58896;" d="M268.8 531.2c-19.2 51.2-19.2 102.4 0 147.2l-44.8 51.2c-38.4-76.8-38.4-166.4 0-249.6l44.8 51.2zM172.8 780.8L128 825.6C44.8 691.2 44.8 524.8 128 390.4l44.8 44.8c-57.6 108.8-57.6 236.8 0 345.6zM691.2 531.2l51.2-51.2c38.4 76.8 38.4 166.4 0 249.6l-51.2-51.2c19.2-44.8 19.2-96 0-147.2zM832 825.6l-44.8-44.8c57.6-108.8 57.6-236.8 0-339.2l44.8-51.2c83.2 134.4 83.2 300.8 0 435.2zM576 192h128v-64H576zM768 320H512V518.4c38.4 12.8 64 51.2 64 89.6C576 659.2 531.2 704 480 704S384 659.2 384 608c0-44.8 25.6-76.8 64-89.6V320H192c-38.4 0-64-25.6-64-64v-192c0-38.4 25.6-64 64-64h576c38.4 0 64 25.6 64 64v192c0 38.4-25.6 64-64 64z m0-256H192v192h576v-192z"  horiz-adv-x="1024" />

    
    <glyph glyph-name="hanglijicun" unicode="&#60179;" d="M868.345625 671.8171875H679.893125v49.558125c0 43.4775-35.1196875 78.2625-77.0925 78.2625H421.199375c-42.8296875 0-77.0925-35.65125-77.0925-78.2625v-49.558125h-188.45625c-66.8090625 0-121.6321875-55.651875-121.6321875-123.4790625V91.83749999999998c0-67.8234375 54.8221875-123.4753125 121.6321875-123.4753125h712.695c66.8203125 0 121.6359375 55.651875 121.6359375 123.4753125V548.3371875c0 67.828125-53.9625 123.48-121.6359375 123.48z m-674.145-45.2175H831.509375v-613.891875H194.200625V626.5996875000001z m193.591875 94.775625c0 18.25875 14.5640625 33.9121875 33.406875 33.9121875h181.6021875c17.986875 0 33.410625-14.7796875 33.410625-33.9121875v-49.558125H387.7925v49.558125zM77.7040625 91.83749999999998V548.3371875c0 41.7421875 31.6903125 75.6478125 71.9484375 78.2625v-613.0190625c-40.258125 2.60625-71.9484375 36.5184375-71.9484375 78.256875z m868.59375 0c0-40.865625-30.841875-74.7834375-71.0990625-78.2559375V626.5996875000001c39.406875-3.4809375 71.0990625-37.393125 71.0990625-78.2625V91.83749999999998z m0 0"  horiz-adv-x="1024" />

    
    <glyph glyph-name="down2" unicode="&#59050;" d="M936.486 559.0930000000001c13.839 14.39 13.393 37.274-0.999 51.113-14.39 13.84-37.274 13.393-51.113-0.999L513.984 235.42999999999995 138.417 607.625c-14.188 14.068-37.092 13.97-51.162-0.219-14.067-14.187-13.969-37.092 0.22-51.161L486.623 160.67999999999995c0.612-0.621 1.41-0.767 2.02-1.34 0.136-0.136 0.174-0.32 0.32-0.464l0.008-0.007c14.174-14.054 37.055-13.954 51.11 0.22l395.594 399.187c0.276 0.266 0.546 0.54 0.81 0.817z"  horiz-adv-x="1024" />

    
    <glyph glyph-name="qiche" unicode="&#59269;" d="M929.895 528.281h-83.22c-3.956 0-7.597-1.18-10.86-2.942l-37.522 113.003c-12 64.288-57.243 95.289-112.844 95.289H333.012c-63.828 0-102.567-41.642-112.848-95.227l-37.617-113.389c-3.421 1.985-7.305 3.262-11.524 3.262H87.782c-12.787 0-23.171-10.363-23.171-23.19v-20.106c0-12.787 10.383-23.171 23.171-23.171l31.516-5.383c-9.947-19.446-15.627-41.7-15.627-67.589l-11.67-133.382c0-3.863 0.288-7.802 0.767-11.762-0.442-2.422-0.767-4.947-0.767-7.523v-160.466c0-22.832 18.534-41.337 41.36-41.337h63.133c22.846 0 41.353 18.503 41.353 41.337v51.578h542.739v-51.578c0-22.832 18.516-41.337 41.36-41.337h63.129c22.831 0 41.362 18.503 41.362 41.337V236.171c0 2.582-0.321 5.107-0.768 7.523 0.461 3.963 0.768 7.9 0.768 11.766l-11.67 133.378c0 25.953-5.699 48.225-15.685 67.731l30.812 5.243c12.811 0 23.17 10.383 23.17 23.171v20.106c0.004 12.828-10.359 23.19-23.164 23.19z m-681.902 23.748l27.549 73.328 0.387 1.717c2.737 14.831 8.864 17.472 17.903 28.925h431.315c9.121-11.766 14.806-14.752 17.326-28.758l27.993-75.21 10.243-40.855c-2.325-29.894-38.245-53.506-68.133-53.506H305.878c-29.91 0-65.827 23.613-68.147 53.506l10.262 40.855z m19.31-348.714c-34.598 0-62.628 28.035-62.628 62.628 0 34.596 28.025 62.627 62.628 62.627 34.593 0 62.627-28.025 62.627-62.627 0-34.593-28.034-62.628-62.627-62.628z m349.776 46.201h-0.004c0-10.302-8.34-18.626-18.631-18.626h-175.69c-10.288 0-18.634 8.325-18.634 18.626v52.346c0 10.282 8.34 18.607 18.634 18.607h175.69c10.291 0 18.637-8.326 18.637-18.607v-52.346z m134.058-46.201c-34.598 0-62.647 28.035-62.647 62.628 0 34.596 28.05 62.627 62.647 62.627 34.593 0 62.622-28.025 62.622-62.627 0.004-34.593-28.029-62.628-62.622-62.628z m0 0z"  horiz-adv-x="1024" />

    
    <glyph glyph-name="guanbi" unicode="&#58973;" d="M586.262261 393.97287l391.613217 391.613217a51.289043 51.289043 0 0 1 0 72.125217l-2.137043 2.137044a51.289043 51.289043 0 0 1-72.125218 0L512 467.70087 120.386783 859.848348a51.289043 51.289043 0 0 1-72.125218 0L46.124522 857.711304a50.309565 50.309565 0 0 1 0-72.125217l391.613217-391.613217-391.613217-391.613218a51.289043 51.289043 0 0 1 0-72.125217l2.137043-2.137044a51.289043 51.289043 0 0 1 72.125218 0L512 319.710609l391.613217-391.613218a51.289043 51.289043 0 0 1 72.125218 0l2.137043 2.137044a51.289043 51.289043 0 0 1 0 72.125217l-391.613217 391.613218z"  horiz-adv-x="1024" />

    
    <glyph glyph-name="checkmark" unicode="&#58881;" d="M403.3 236.1c18 16.3 32.2 28.6 45.7 41.6 129.2 124.4 258.6 248.7 387.3 373.5 31.2 30.2 63.8 45.4 102 13.8 32-26.4 27.2-63.2-12.6-101.7C773.2 415.7 620.2 268.2 467.1 121c-48-46.1-74.1-46.4-121.2-1.5-83.1 79.4-165.3 159.8-248.5 239.1C66 388.5 50.1 420 82.8 456.9c27.4 30.9 65.6 26.4 105.5-11.9 71.3-68.5 141.9-137.8 215-208.9z"  horiz-adv-x="1024" />

    
    <glyph glyph-name="dingdan" unicode="&#58947;" d="M299.52 459.264H755.2v-61.44H299.52v61.44z m0-165.376H755.2v-61.44H299.52v61.44z m0-164.864h227.84v-61.44H299.52v61.44zM854.528 717.824H742.912c-0.512 44.544-36.864 80.896-81.92 81.92-4.608 41.472-39.936 74.24-82.944 74.24H476.16c-43.008 0-78.336-32.768-82.944-74.24-45.056-1.024-80.896-36.864-81.92-81.92H200.192c-45.056 0-81.92-36.352-81.92-81.408v-660.992c0-45.056 36.864-81.408 81.92-81.408h654.336c45.056 0 81.92 36.352 81.92 81.408V636.928c0 44.544-36.864 80.896-81.92 80.896zM395.264 742.4h26.624c15.872 0 28.672 12.8 28.672 28.672V791.04c0 14.336 11.264 25.6 25.6 25.6h102.4c14.336 0 25.6-11.264 25.6-25.6v-19.968c0-15.872 12.8-28.672 28.672-28.672h26.624c13.824 0 25.088-10.752 25.6-24.576v-67.072c0-14.336-11.264-25.6-25.6-25.6H395.264c-14.336 0-25.6 11.264-25.6 25.6v67.072c0.512 13.824 11.776 24.576 25.6 24.576z m483.328-766.976c0-13.312-10.752-24.064-24.064-24.064H200.192c-13.312 0-24.064 10.752-24.064 24.064V636.928c0 13.312 10.752 24.064 24.064 24.064h111.616v-9.728c0-45.568 37.376-82.944 83.456-82.944h264.704c46.08 0 83.456 37.376 83.456 82.944v9.216H855.04c13.312 0 24.064-10.752 24.064-24.064l-0.512-660.992z"  horiz-adv-x="1028" />

    
    <glyph glyph-name="shangjiaguanli" unicode="&#58948;" d="M1221.284 591.101a36.63 36.63 0 0 1-2.407 8.046L1128.32 821.548C1112.504 867.728 1067.631 896 1014.843 896H378.92c-53.31 0-94.978-27.996-109.892-72.346l-97.333-226.797a40.647 40.647 0 0 1-1.479-5.35A209.057 209.057 0 0 1 272.26 340.992c28.56-14.875 62.312-22.58 100.094-22.58a213.518 213.518 0 0 1 162.222 74.752c39.927-46.756 98.327-73.81 161.424-74.478a211.687 211.687 0 0 1 160.495 74.478 212.733 212.733 0 0 1 162.627-74.478c38.45 0.262 73.013 8.033 101.546 23.85 68.46 36.97 110.795 107.432 110.795 184.33a199.337 199.337 0 0 1-10.191 64.3M1098.427 401.97a146.588 146.588 0 0 0-186.725 50.89 65.085 65.085 0 0 1-10.57 16.68 49.595 49.595 0 0 1-38.372 15.7 51.113 51.113 0 0 1-38.658-16.38c-5.56-5.835-8.347-12.088-10.57-16.405a138.961 138.961 0 0 0-236.505 0.418 57.942 57.942 0 0 1-9.59 14.875c-18.903 22.24-61.172 20.932-77.578 1.805a53.402 53.402 0 0 1-11.12-17.66 141.29 141.29 0 0 0-119.285-65.452c-25.995 0-48.248 4.592-66.184 14.181-62.155 32.118-90.518 105.667-65.766 170.883l99.558 232.043c2.224 5.834 8.346 24.058 39.247 24.058h660.139c12.65-0.562 34.629-2.786 42.413-25.59l93.29-228.941 1.309-4.592c22.658-63.816-5.233-134.174-64.928-166.422m14.22-114.562c-10.178 0-16.039-3.925-23.143-10.99a38.685 38.685 0 0 1-11.25-27.054v-208.01a21.01 21.01 0 0 0-6.542-15.137 21.442 21.442 0 0 0-15.542-6.293l-734.734-0.536a21.717 21.717 0 0 0-21.835 21.43l-0.261 204.242c-0.262 21.167-13.62 38.187-34.787 38.187s-34.524-17.007-34.786-38.449l0.275-204.295c0.536-54.253 41.092-92.427 95.214-92.166l727.382 0.537c54.253-0.262 94.678 38.305 94.94 92.427V249.362c-0.537 21.037-13.894 38.044-35.062 38.044m-114.68 270.806H379.457c-21.168 0-38.45 10.466-38.711 31.633 0 21.168 17.282 34.25 38.71 34.25h618.511c21.43 0 38.711-13.082 38.711-34.25 0-10.178-4.16-13.422-11.25-20.513a37.704 37.704 0 0 0-27.474-11.12"  horiz-adv-x="1317" />

    
    <glyph glyph-name="shangchuantupian" unicode="&#58949;" d="M1189.202 771.937H803.515L754.66 863.216A64.281 64.281 0 0 1 700.665 895.999H368.974a60.424 60.424 0 0 1-53.996-32.783l-47.568-91.28H96.422A96.422 96.422 0 0 1 0 675.516v-707.093A96.422 96.422 0 0 1 96.422-128h1092.78a96.422 96.422 0 0 1 96.422 96.422V675.515a96.422 96.422 0 0 1-96.422 96.422z m32.14-803.515a32.14 32.14 0 0 0-32.14-32.14H96.422a32.14 32.14 0 0 0-32.14 32.14V675.515a32.14 32.14 0 0 0 32.14 32.14h192.843a30.855 30.855 0 0 1 28.284 17.356l51.425 106.707h328.477l55.925-108.635a32.14 32.14 0 0 1 28.926-17.356h406.9a32.14 32.14 0 0 0 32.14-32.14zM616.457 550.81A257.125 257.125 0 1 1 873.58 293.684a257.125 257.125 0 0 1-257.124 257.124z m0-449.969A192.844 192.844 0 1 0 809.3 293.685 192.844 192.844 0 0 0 616.457 100.84z m459.61 538.034a64.281 64.281 0 1 1 67.495-64.282 64.281 64.281 0 0 1-67.495 64.282z"  horiz-adv-x="1285" />

    
    <glyph glyph-name="center" unicode="&#58950;" d="M768.512-108.544l-478.208-8.192c-84.992-1.536-155.136 66.048-156.672 151.04l-1.536 94.72c-2.048 112.128 71.68 211.968 179.712 242.688l17.92 5.12 13.312-13.824c101.376-103.424 267.264-104.96 370.688-3.584l6.656 6.656 13.824 14.336 18.432-6.144c98.816-33.792 165.888-125.952 167.936-230.4l1.536-92.672c3.072-84.992-63.488-156.16-147.968-159.232h-3.072l-2.56-0.512z m-458.24 415.232c-72.704-28.672-119.808-99.328-118.784-177.152l1.536-92.672c1.024-51.712 43.52-93.184 95.744-92.672l478.72 8.192c51.712 1.024 93.184 44.032 92.16 95.744l-1.536 92.672c-1.536 71.68-43.52 136.704-108.544 166.4a320.85504 320.85504 0 0 0-214.528-86.016c-82.944-1.024-163.84 29.696-224.768 85.504z m216.064 79.872c-138.24 1.536-248.32 115.2-246.784 252.928S394.752 887.808 532.48 886.272c137.728-1.536 247.808-114.176 246.784-251.904-1.024-138.24-114.176-249.344-252.416-247.808h-0.512z m0 435.2c-104.96-1.024-189.44-86.528-188.416-191.488 1.024-104.96 86.528-189.44 191.488-188.416 104.96 1.024 189.44 86.528 188.416 191.488-0.512 50.688-20.992 98.816-56.832 134.144-36.352 34.816-84.48 54.272-134.656 54.272z"  horiz-adv-x="1024" />

    


  </font>
</defs>
</svg>
